<svg xmlns="http://www.w3.org/2000/svg" width="607.874" height="284.851" viewBox="0 0 607.874 284.851">
  <path id="Path_1" data-name="Path 1" d="M-14.19,314.215l81.97-81.969a47.057,47.057,0,0,1,66.549,0h0a47.057,47.057,0,0,1,0,66.549L97,336.128a20.66,20.66,0,0,0,0,29.217h0a20.658,20.658,0,0,0,29.216,0l8.116-8.116a42.467,42.467,0,0,1,60.057,0h0a42.467,42.467,0,0,1,0,60.057l-33.275,33.275a9.183,9.183,0,0,0,0,12.985h0a9.182,9.182,0,0,0,12.986,0l81.158-81.158a36.728,36.728,0,0,1,51.941,0h0a36.728,36.728,0,0,1,0,51.941l-21.913,21.913a8.035,8.035,0,0,0,0,11.362h0a8.033,8.033,0,0,0,11.362,0l1.817-1.817a98.432,98.432,0,0,1,139.2,0l37.527,37.527H-132.681S-6.886,321.52-14.19,314.215Z" transform="translate(132.681 -218.463)" fill="#00bfa6" opacity="0.19"/>
</svg>
