<svg xmlns="http://www.w3.org/2000/svg" width="15.465" height="17" viewBox="0 0 15.465 17">
  <g id="Group_2180" data-name="Group 2180" transform="translate(-2553 527.981)">
    <g id="Group_2171" data-name="Group 2171" transform="translate(2553 -527.981)">
      <path id="Bell" d="M7.566,17a2.9,2.9,0,0,1-2.9-2.8h-2.7a1.944,1.944,0,0,1-1.426-.61A1.975,1.975,0,0,1,0,12.241,1.946,1.946,0,0,1,.527,10.9l.07-.075.015-.016.033-.035C1.162,10.231,1.87,9.486,1.87,7.1A5.6,5.6,0,0,1,2.9,3.842,5.656,5.656,0,0,1,5.61,1.793a1.964,1.964,0,0,1,3.912,0,5.8,5.8,0,0,1,.911.421,3.807,3.807,0,0,0-.684.8A4.839,4.839,0,0,0,8.5,2.572V1.964a.933.933,0,1,0-1.867,0v.608A4.61,4.61,0,0,0,2.9,7.1c0,2.8-.944,3.792-1.508,4.385l-.014.015-.1.1a.91.91,0,0,0-.252.633.932.932,0,0,0,.937.934h11.2a.93.93,0,0,0,.937-.934.9.9,0,0,0-.251-.633l-.11-.117a4.707,4.707,0,0,1-1.372-2.7,3.83,3.83,0,0,0,1.051.014,3.647,3.647,0,0,0,1.067,1.976l.056.06.062.066a1.945,1.945,0,0,1,.528,1.342,1.975,1.975,0,0,1-.542,1.347,1.943,1.943,0,0,1-1.426.61h-2.7a2.9,2.9,0,0,1-2.9,2.8ZM5.7,14.1a1.867,1.867,0,1,0,3.734,0Z" transform="translate(0 0)" fill="#00bfa6"/>
    </g>
    <path id="Badge" d="M2.522,0A2.522,2.522,0,1,1,0,2.522,2.522,2.522,0,0,1,2.522,0Z" transform="translate(2563.421 -525.459)" fill="#ffcf54"/>
  </g>
</svg>
