<svg xmlns="http://www.w3.org/2000/svg" width="607.874" height="284.851" viewBox="0 0 607.874 284.851">
  <path id="Path_1" data-name="Path 1" d="M356.7,314.215l-81.97-81.969a47.057,47.057,0,0,0-66.549,0h0a47.057,47.057,0,0,0,0,66.549l37.332,37.333a20.66,20.66,0,0,1,0,29.217h0a20.658,20.658,0,0,1-29.216,0l-8.116-8.116a42.467,42.467,0,0,0-60.057,0h0a42.467,42.467,0,0,0,0,60.057L181.4,450.561a9.183,9.183,0,0,1,0,12.985h0a9.182,9.182,0,0,1-12.986,0L87.257,382.388a36.728,36.728,0,0,0-51.941,0h0a36.728,36.728,0,0,0,0,51.941l21.913,21.913a8.035,8.035,0,0,1,0,11.362h0a8.033,8.033,0,0,1-11.362,0l-1.817-1.817a98.432,98.432,0,0,0-139.2,0l-37.527,37.527H475.193S349.4,321.52,356.7,314.215Z" transform="translate(132.681 -218.463)" fill="#00bfa6" opacity="0.28"/>
</svg>
