<svg xmlns="http://www.w3.org/2000/svg" width="21.657" height="21.244" viewBox="0 0 21.657 21.244">
  <g id="_4171942_calendar_multiple_reservations_templates_schedule_icon" data-name="4171942_calendar_multiple_reservations_templates_schedule_icon" transform="translate(0 -0.458)">
    <rect id="Rectangle_213" data-name="Rectangle 213" width="2.124" height="2.125" transform="translate(7.317 13.204)" fill="#00bfa6"/>
    <rect id="Rectangle_214" data-name="Rectangle 214" width="2.124" height="2.125" transform="translate(10.563 13.204)" fill="#00bfa6"/>
    <rect id="Rectangle_215" data-name="Rectangle 215" width="2.124" height="2.125" transform="translate(13.72 13.204)" fill="#00bfa6"/>
    <rect id="Rectangle_216" data-name="Rectangle 216" width="2.124" height="2.125" transform="translate(16.877 13.204)" fill="#00bfa6"/>
    <rect id="Rectangle_217" data-name="Rectangle 217" width="2.124" height="2.125" transform="translate(7.317 16.391)" fill="#00bfa6"/>
    <rect id="Rectangle_218" data-name="Rectangle 218" width="2.124" height="2.125" transform="translate(10.563 16.391)" fill="#00bfa6"/>
    <rect id="Rectangle_219" data-name="Rectangle 219" width="2.124" height="2.125" transform="translate(13.72 16.391)" fill="#00bfa6"/>
    <rect id="Rectangle_220" data-name="Rectangle 220" width="2.124" height="2.125" transform="translate(16.877 16.391)" fill="#00bfa6"/>
    <path id="Path_3123" data-name="Path 3123" d="M21.342,6.123H19.3V3.29H17V.458H0V16.037H2.3v2.832H4.662V21.7H21.657V6.123h-.315ZM1.416,1.874h14.1V3.291H2.3V4.672H1.416Zm0,12.746V6.087H2.3v8.533H1.416Zm3.246-4.284v7.117H3.718V8.92h.944Zm0-2.833H3.718v-2.8H17.881V6.123H4.662ZM20.241,20.285H6.078V11.752H20.241Zm0-9.949H6.078v-2.8H20.241Z" fill="#00bfa6"/>
  </g>
</svg>
