<svg xmlns="http://www.w3.org/2000/svg" width="27.978" height="20.983" viewBox="0 0 27.978 20.983">
  <path id="folder-add" d="M22.732,20.612H20.109v-.874h2.623V17.114h.874v2.623h2.623v.874H23.606v2.623h-.874V20.612Zm-4.352,2.623H1.743A1.746,1.746,0,0,1,0,21.494V11.869H25.355v3.058a5.685,5.685,0,0,0-6.975,8.307ZM0,10.994V5.741A1.745,1.745,0,0,1,1.751,4h9.615l1.749,3.5H23.6a1.749,1.749,0,0,1,1.754,1.744v1.753H0ZM23.169,24.983a4.809,4.809,0,1,0-4.809-4.809,4.809,4.809,0,0,0,4.809,4.809Z" transform="translate(0 -4)" fill="#ffcf54" fill-rule="evenodd"/>
</svg>
