<svg id="Group_154" data-name="Group 154" xmlns="http://www.w3.org/2000/svg" width="34.1" height="47.4" viewBox="0 0 34.1 47.4">
  <path id="Path_11" data-name="Path 11" d="M37.414,27.783V8.814a8.428,8.428,0,0,0-16.857,0V27.783a8.428,8.428,0,1,0,16.857,0Zm-13.858,0V8.814a5.429,5.429,0,1,1,10.858,0V27.783a5.429,5.429,0,1,1-10.858,0Z" transform="translate(-11.935 -0.386)" fill="#00bfa6"/>
  <path id="Path_12" data-name="Path 12" d="M26.037,55.519a1.5,1.5,0,0,0,1.5-1.5V49.2A17.066,17.066,0,0,0,43.086,32.228a1.5,1.5,0,1,0-3,0,14.05,14.05,0,0,1-28.1,0,1.5,1.5,0,1,0-3,0A17.064,17.064,0,0,0,24.537,49.2v4.82A1.5,1.5,0,0,0,26.037,55.519Z" transform="translate(-8.986 -8.119)" fill="#00bfa6"/>
</svg>
