<svg xmlns="http://www.w3.org/2000/svg" width="19.283" height="32.067" viewBox="0 0 19.283 32.067">
  <g id="noun_Microphone_2246227" transform="translate(0 0.25)">
    <g id="Group_8" data-name="Group 8" transform="translate(0 -0.25)">
      <path id="Path_16" data-name="Path 16" d="M52.512,15.6V5.434c0-7.579-11.512-7.579-11.512,0V15.7C41,23.182,52.416,23.086,52.512,15.6Z" transform="translate(-37.067 0.25)" fill="#fff" fill-rule="evenodd"/>
      <path id="Path_17" data-name="Path 17" d="M10.649,127.226v4.6h2.974a.96.96,0,0,1,0,1.919H5.756a.96.96,0,1,1,0-1.919H8.634v-4.6A9.594,9.594,0,0,1,0,117.633v-4.125a1.007,1.007,0,1,1,2.015,0v4.125a7.675,7.675,0,0,0,15.35,0v-4.125a.961.961,0,1,1,1.919,0v4.125A9.519,9.519,0,0,1,10.649,127.226Z" transform="translate(0 -101.683)" fill="#fff" fill-rule="evenodd"/>
    </g>
  </g>
</svg>
