<svg xmlns="http://www.w3.org/2000/svg" width="11.947" height="19.867" viewBox="0 0 11.947 19.867">
  <g id="noun_Microphone_2246227" transform="translate(0 0.25)">
    <g id="Group_8" data-name="Group 8" transform="translate(0 -0.25)">
      <path id="Path_16" data-name="Path 16" d="M48.133,9.572v-6.3c0-4.7-7.133-4.7-7.133,0v6.36C41,14.268,48.073,14.208,48.133,9.572Z" transform="translate(-38.563 0.25)" fill="#b9b9b9" fill-rule="evenodd"/>
      <path id="Path_17" data-name="Path 17" d="M6.6,121.624v2.853H8.44a.6.6,0,0,1,0,1.189H3.566a.6.6,0,1,1,0-1.189H5.349v-2.853A5.944,5.944,0,0,1,0,115.68v-2.556a.624.624,0,0,1,1.248,0v2.556a4.755,4.755,0,0,0,9.51,0v-2.556a.6.6,0,1,1,1.189,0v2.556A5.9,5.9,0,0,1,6.6,121.624Z" transform="translate(0 -105.798)" fill="#b9b9b9" fill-rule="evenodd"/>
    </g>
  </g>
</svg>
